<svg height="200px" width="200px" version="1.1" id="Layer_1" xmlns="http://www.w3.org/2000/svg" xmlns:xlink="http://www.w3.org/1999/xlink" viewBox="0 0 512 512" xml:space="preserve" fill="#000000"><g id="SVGRepo_bgCarrier" stroke-width="0"></g><g id="SVGRepo_tracerCarrier" stroke-linecap="round" stroke-linejoin="round"></g><g id="SVGRepo_iconCarrier"> <g transform="translate(1 1)"> <path style="fill:#FFDD09;" d="M365.747,7.533c-75.093,0-136.533,61.44-136.533,136.533c0,23.893,5.973,46.08,16.213,64.853 l-16.213,71.68l66.56-19.627c20.48,12.8,44.373,19.627,69.973,19.627c75.093,0,136.533-61.44,136.533-136.533 S440.84,7.533,365.747,7.533"></path> <path style="fill:#FD9808;" d="M365.747,7.533c-4.267,0-8.533,0-12.8,0.853c69.12,5.973,123.733,64.853,123.733,135.68 s-54.613,129.707-123.733,135.68c4.267,0,8.533,0.853,12.8,0.853c75.093,0,136.533-61.44,136.533-136.533 S440.84,7.533,365.747,7.533"></path> <path style="fill:#FFDD09;" d="M231.773,452.973c11.947,11.947,24.747,22.187,40.107,30.72 c49.493,27.307,100.693,28.16,147.627-18.773l21.333-21.333c10.24-10.24,12.8-26.453,5.973-39.253 c-16.213-30.72-75.947-65.707-75.947-65.707c-13.653-7.68-29.867-8.533-37.547,5.12c0,0-19.627,23.04-24.747,26.453 c-22.187,15.36-43.52,14.507-64.853-6.827l-48.64-48.64l-48.64-48.64c-21.333-21.333-21.333-41.813-6.827-64.853 c3.413-5.12,26.453-24.747,26.453-24.747c13.653-7.68,12.8-23.893,5.12-37.547c0,0-34.987-59.733-65.707-75.947 c-12.8-6.827-28.16-4.267-39.253,5.973L44.893,91.16c-43.52,43.52-46.08,90.453-24.747,136.533 c8.533,18.773,21.333,34.987,35.84,49.493L231.773,452.973z"></path> <path style="fill:#FFFFFF;" d="M436.573,447c-46.933,46.933-98.133,46.08-147.627,18.773c-14.507-8.533-28.16-18.773-40.107-30.72 L73.907,259.267C59.4,244.76,46.6,227.693,38.067,209.773c-20.48-43.52-19.627-88.747,17.92-129.707L44.893,91.16 c-43.52,43.52-46.08,90.453-24.747,136.533c8.533,18.773,21.333,34.987,35.84,49.493L230.92,452.973 c11.947,11.947,24.747,22.187,40.107,30.72C320.52,511,371.72,511.853,418.653,464.92l21.333-21.333 c0.853-0.853,1.707-1.707,2.56-2.56L436.573,447z"></path> <g> <path style="fill:#FD9808;" d="M446.813,403.48c-16.213-30.72-75.947-65.707-75.947-65.707c-13.653-7.68-29.867-8.533-37.547,5.12 c0,0-2.56,3.413-6.827,7.68c7.68-3.413,17.92-0.853,27.307,4.267c0,0,59.733,34.987,75.947,65.707 c6.827,12.8,4.267,29.013-5.973,39.253l-4.267,4.267l0,0l21.333-21.333C451.933,432.493,454.493,416.28,446.813,403.48"></path> <path style="fill:#FD9808;" d="M139.613,202.093c-6.827,5.973-14.507,12.8-16.213,15.36c-15.36,22.187-14.507,43.52,6.827,64.853 l48.64,48.64l48.64,48.64c21.333,21.333,41.813,21.333,64.853,6.827c2.56-1.707,9.387-9.387,15.36-16.213 c-22.187,13.653-41.813,12.8-63.147-7.68l-48.64-48.64l-48.64-48.64C125.96,244.76,125.107,224.28,139.613,202.093"></path> <path style="fill:#FD9808;" d="M89.267,80.067c30.72,16.213,65.707,75.947,65.707,75.947c5.12,9.387,6.827,18.773,4.267,27.307 c4.267-4.267,7.68-6.827,7.68-6.827c13.653-7.68,12.8-23.893,5.12-37.547c0,0-34.987-59.733-65.707-75.947 c-12.8-7.68-29.013-5.12-39.253,5.973L50.013,86.04C60.253,74.947,76.467,72.387,89.267,80.067"></path> </g> <path d="M340.147,417.133h-0.853c-58.88-5.973-97.28-43.52-98.133-45.227c-3.413-3.413-3.413-8.533,0-11.947 c3.413-3.413,8.533-3.413,11.947,0c0,0,35.84,34.987,87.893,40.107c4.267,0.853,7.68,4.267,7.68,9.387 C347.827,413.72,344.413,417.133,340.147,417.133z"></path> <path d="M153.267,280.6c-1.707,0-3.413-0.853-5.12-1.707c-1.707-1.707-48.64-40.107-54.613-99.84 c-0.853-4.267,2.56-8.533,7.68-9.387c5.12-0.853,8.533,2.56,9.387,7.68c5.12,52.053,48.64,87.893,48.64,87.893 c3.413,2.56,4.267,8.533,0.853,11.947C157.533,279.747,155.827,280.6,153.267,280.6z"></path> <path d="M337.587,511c-22.187,0-46.08-6.827-69.973-20.48c-14.507-7.68-28.16-18.773-41.813-32.427l0,0L50.867,283.16 c-16.213-16.213-29.013-34.133-37.547-52.053C-12.28,176.493-2.893,127,39.773,84.333L61.107,63 c12.8-12.8,33.28-16.213,49.493-7.68c32.427,17.067,67.413,76.8,69.12,79.36c5.973,11.093,8.533,22.187,5.973,31.573 c-1.707,6.827-6.827,12.8-12.8,17.067c-10.24,8.533-22.187,19.627-24.747,22.187c-13.653,20.48-11.947,35.84,5.12,53.76 l97.28,98.133c17.067,17.067,33.28,18.773,53.76,5.12c2.56-1.707,13.653-13.653,22.187-24.747 c4.267-6.827,10.24-11.093,17.067-12.8c9.387-2.56,21.333-0.853,31.573,5.12c2.56,1.707,62.293,36.693,79.36,69.12 c8.533,16.213,5.973,36.693-7.68,49.493l-21.333,22.187C399.027,497.347,369.16,511,337.587,511z M237.747,447 c11.947,11.947,24.747,22.187,37.547,29.013c52.053,29.013,97.28,23.04,137.387-17.067l21.333-21.333 c7.68-7.68,9.387-19.627,4.267-29.013c-14.507-28.16-72.533-62.293-72.533-62.293c-6.827-3.413-13.653-5.12-18.773-4.267 c-3.413,0.853-5.12,2.56-6.827,5.973v0.853c-5.973,7.68-20.48,24.747-26.453,28.16c-27.307,17.92-52.053,15.36-75.093-7.68 l-98.133-98.133c-23.04-23.04-25.6-48.64-7.68-75.093c3.413-5.12,21.333-19.627,28.16-26.453l0.853-0.853 c3.413-1.707,5.12-4.267,5.973-6.827c1.707-5.12,0-11.947-4.267-18.773c0-0.853-34.133-58.027-62.293-72.533 c-8.533-5.12-20.48-3.413-28.16,4.267L51.72,96.28c-37.547,37.547-45.227,79.36-23.04,127.147 c7.68,16.213,18.773,32.427,34.133,47.787L237.747,447L237.747,447z"></path> <path d="M425.48,203.8c-5.12,0-8.533-3.413-8.533-8.533v-25.6H374.28c-3.413,0-5.973-1.707-7.68-5.12 c-1.707-2.56-0.853-5.973,0.853-8.533l51.2-68.267c2.56-2.56,5.973-4.267,9.387-2.56c3.413,0.853,5.973,4.267,5.973,7.68V152.6 h8.533c5.12,0,8.533,3.413,8.533,8.533c0,5.12-3.413,8.533-8.533,8.533h-8.533v25.6C434.013,200.387,430.6,203.8,425.48,203.8z M391.347,152.6h25.6v-34.133L391.347,152.6z"></path> <path d="M357.213,203.8h-63.147c-5.973,0-11.093-3.413-12.8-8.533c-1.707-5.12-0.853-11.093,4.267-15.36l51.2-44.373 c6.827-6.827,6.827-16.213,4.267-22.187c-3.413-7.68-9.387-11.947-17.92-11.947l0,0c-14.507,0-25.6,11.093-25.6,25.6 c0,5.12-3.413,8.533-8.533,8.533c-5.12,0-8.533-3.413-8.533-8.533c0-23.893,18.773-42.667,42.667-42.667h0.853 c14.507,0,27.307,8.533,32.427,23.04c5.973,14.507,2.56,29.867-8.533,40.96l-44.373,38.4h53.76c5.12,0,8.533,3.413,8.533,8.533 C365.747,200.387,362.333,203.8,357.213,203.8z"></path> <path d="M229.213,289.133c-2.56,0-4.267-0.853-5.973-2.56c-2.56-1.707-3.413-5.12-2.56-8.533l16.213-68.267 c-11.093-19.627-16.213-42.667-16.213-65.707C220.68,63.853,285.533-1,365.747-1s145.067,64.853,145.067,145.067 S445.96,289.133,365.747,289.133c-24.747,0-49.493-6.827-70.827-18.773l-63.147,18.773 C230.92,289.133,230.067,289.133,229.213,289.133z M295.773,252.44c1.707,0,3.413,0,4.267,0.853 c19.627,11.947,42.667,17.92,65.707,17.92c70.827,0,128-57.173,128-128s-57.173-127.147-128-127.147s-128,57.173-128,128 c0,21.333,5.12,42.667,15.36,61.44c0.853,1.707,1.707,4.267,0.853,5.973l-13.653,57.173l52.907-15.36 C294.067,253.293,294.92,252.44,295.773,252.44z"></path> </g> </g></svg>
