<?xml version="1.0" encoding="utf-8"?>
<!-- Generator: Adobe Illustrator 26.2.1, SVG Export Plug-In . SVG Version: 6.00 Build 0)  -->
<svg version="1.1" id="Capa_1" xmlns="http://www.w3.org/2000/svg" xmlns:xlink="http://www.w3.org/1999/xlink" x="0px" y="0px"
	 viewBox="0 0 24 18" style="enable-background:new 0 0 24 18;" xml:space="preserve">
<style type="text/css">
	.st0{fill:url(#SVGID_1_);}
</style>
<linearGradient id="SVGID_1_" gradientUnits="userSpaceOnUse" x1="23.2017" y1="9.0025" x2="-1.6529" y2="9.0025">
	<stop  offset="0" style="stop-color:#F7572D"/>
	<stop  offset="0.482" style="stop-color:#CC0D88"/>
	<stop  offset="1" style="stop-color:#6000A8"/>
</linearGradient>
<path class="st0" d="M23,11.3c-1.4-1.9-3.1-4.1-4.8-6.4c-0.3-0.4-0.4-0.8-0.3-1.2c0.2-1.2,1.7-1.5,2.5-0.5c0.3,0.3,0.5,0.8,0.9,1
	c1.1,0.5,2.2-0.2,2-1.5C21-2.8,12.5,1,16,6.4c1.5,2.1,3.1,4.1,4.6,6.2c1,1.3,0.7,2.5-0.6,2.7c-0.5,0-1-0.4-1.6-1.1
	c-0.9-1.2-5-7.5-4.3-10.9c-0.5-5.9-9.1-2.9-5.8,2c0.8,1.1,1.5,2.2,2.4,3.2c1,1.2,0.7,2.5,0.6,3.8c-3-3.8-5.9-7.6-8.7-11.4
	c-0.4-0.6-1-1.2-1.8-0.8c-1,0.4-0.9,1.3-0.9,2c0,4.6,0,9.4,0,14c0,1,0.3,1.9,1.4,1.9c1.3,0,1.3-1.3,1.3-1.8c0-3.6,0-7.1,0-10.7
	C3,5.7,5,8.4,5.3,8.8c2,2.7,4.1,5.5,6.2,8.2c0.6,0.7,1.1,1.1,1.8,0.9c1.5-0.6,0.7-3.4,0.9-4.9c1.6,1.9,2.9,5,5.6,5
	C23.2,18.1,25.3,14,23,11.3z M10.6,2.7c0.3-0.3,0.8,0.1,0.8,0.5l0,0c0.1,0.5,0.1,1.1,0.1,1.7c-0.4-0.5-0.8-1-1-1.4l-0.1-0.2l0,0
	C10.4,3.2,10.4,2.9,10.6,2.7z"/>
</svg>
