<?xml version="1.0" encoding="UTF-8"?>
<svg xmlns="http://www.w3.org/2000/svg" xmlns:xlink="http://www.w3.org/1999/xlink" width="1026" height="1025" viewBox="0 0 1026 1025">
<defs>
<linearGradient id="linear-pattern-0" gradientUnits="userSpaceOnUse" x1="564.622009" y1="798.776001" x2="458.239014" y2="216.115997">
<stop offset="0" stop-color="rgb(100%, 100%, 100%)" stop-opacity="1"/>
<stop offset="1" stop-color="rgb(100%, 100%, 100%)" stop-opacity="0"/>
</linearGradient>
<linearGradient id="linear-pattern-1" gradientUnits="userSpaceOnUse" x1="576.05603" y1="796.453979" x2="446.802002" y2="218.438004">
<stop offset="0" stop-color="rgb(100%, 100%, 100%)" stop-opacity="1"/>
<stop offset="1" stop-color="rgb(100%, 100%, 100%)" stop-opacity="0"/>
</linearGradient>
<linearGradient id="linear-pattern-2" gradientUnits="userSpaceOnUse" x1="589.705017" y1="793.059998" x2="433.14801" y2="221.835007">
<stop offset="0" stop-color="rgb(100%, 100%, 100%)" stop-opacity="1"/>
<stop offset="1" stop-color="rgb(100%, 100%, 100%)" stop-opacity="0"/>
</linearGradient>
<linearGradient id="linear-pattern-3" gradientUnits="userSpaceOnUse" x1="599.799011" y1="796.245972" x2="425.175995" y2="230.283005">
<stop offset="0" stop-color="rgb(100%, 100%, 100%)" stop-opacity="1"/>
<stop offset="1" stop-color="rgb(100%, 100%, 100%)" stop-opacity="0"/>
</linearGradient>
<linearGradient id="linear-pattern-4" gradientUnits="userSpaceOnUse" x1="611.879028" y1="792.231995" x2="413.09201" y2="234.300003">
<stop offset="0" stop-color="rgb(100%, 100%, 100%)" stop-opacity="1"/>
<stop offset="1" stop-color="rgb(100%, 100%, 100%)" stop-opacity="0"/>
</linearGradient>
<linearGradient id="linear-pattern-5" gradientUnits="userSpaceOnUse" x1="622.60498" y1="788.174988" x2="402.36499" y2="238.358994">
<stop offset="0" stop-color="rgb(100%, 100%, 100%)" stop-opacity="1"/>
<stop offset="1" stop-color="rgb(100%, 100%, 100%)" stop-opacity="0"/>
</linearGradient>
<linearGradient id="linear-pattern-6" gradientUnits="userSpaceOnUse" x1="633.492981" y1="783.557007" x2="391.470001" y2="242.977997">
<stop offset="0" stop-color="rgb(100%, 100%, 100%)" stop-opacity="1"/>
<stop offset="1" stop-color="rgb(100%, 100%, 100%)" stop-opacity="0"/>
</linearGradient>
<linearGradient id="linear-pattern-7" gradientUnits="userSpaceOnUse" x1="642.405029" y1="779.388977" x2="382.55899" y2="247.147995">
<stop offset="0" stop-color="rgb(100%, 100%, 100%)" stop-opacity="1"/>
<stop offset="1" stop-color="rgb(100%, 100%, 100%)" stop-opacity="0"/>
</linearGradient>
<linearGradient id="linear-pattern-8" gradientUnits="userSpaceOnUse" x1="654.70697" y1="773.02301" x2="370.259003" y2="253.516006">
<stop offset="0" stop-color="rgb(100%, 100%, 100%)" stop-opacity="1"/>
<stop offset="1" stop-color="rgb(100%, 100%, 100%)" stop-opacity="0"/>
</linearGradient>
<linearGradient id="linear-pattern-9" gradientUnits="userSpaceOnUse" x1="665.960022" y1="766.536987" x2="359.002014" y2="260.006989">
<stop offset="0" stop-color="rgb(100%, 100%, 100%)" stop-opacity="1"/>
<stop offset="1" stop-color="rgb(100%, 100%, 100%)" stop-opacity="0"/>
</linearGradient>
<linearGradient id="linear-pattern-10" gradientUnits="userSpaceOnUse" x1="677.22998" y1="759.353027" x2="347.730988" y2="267.19101">
<stop offset="0" stop-color="rgb(100%, 100%, 100%)" stop-opacity="1"/>
<stop offset="1" stop-color="rgb(100%, 100%, 100%)" stop-opacity="0"/>
</linearGradient>
<linearGradient id="linear-pattern-11" gradientUnits="userSpaceOnUse" x1="688.101013" y1="751.71698" x2="336.859009" y2="274.830994">
<stop offset="0" stop-color="rgb(100%, 100%, 100%)" stop-opacity="1"/>
<stop offset="1" stop-color="rgb(100%, 100%, 100%)" stop-opacity="0"/>
</linearGradient>
<linearGradient id="linear-pattern-12" gradientUnits="userSpaceOnUse" x1="698.651978" y1="743.573975" x2="326.312012" y2="282.976013">
<stop offset="0" stop-color="rgb(100%, 100%, 100%)" stop-opacity="1"/>
<stop offset="1" stop-color="rgb(100%, 100%, 100%)" stop-opacity="0"/>
</linearGradient>
<linearGradient id="linear-pattern-13" gradientUnits="userSpaceOnUse" x1="708.505005" y1="735.247009" x2="316.457001" y2="291.306">
<stop offset="0" stop-color="rgb(100%, 100%, 100%)" stop-opacity="1"/>
<stop offset="1" stop-color="rgb(100%, 100%, 100%)" stop-opacity="0"/>
</linearGradient>
<linearGradient id="linear-pattern-14" gradientUnits="userSpaceOnUse" x1="715.963013" y1="728.432983" x2="309.002991" y2="298.122986">
<stop offset="0" stop-color="rgb(100%, 100%, 100%)" stop-opacity="1"/>
<stop offset="1" stop-color="rgb(100%, 100%, 100%)" stop-opacity="0"/>
</linearGradient>
<linearGradient id="linear-pattern-15" gradientUnits="userSpaceOnUse" x1="725.487976" y1="719.005981" x2="299.479004" y2="307.549011">
<stop offset="0" stop-color="rgb(100%, 100%, 100%)" stop-opacity="1"/>
<stop offset="1" stop-color="rgb(100%, 100%, 100%)" stop-opacity="0"/>
</linearGradient>
<linearGradient id="linear-pattern-16" gradientUnits="userSpaceOnUse" x1="733.234009" y1="710.669983" x2="291.731995" y2="315.888">
<stop offset="0" stop-color="rgb(100%, 100%, 100%)" stop-opacity="1"/>
<stop offset="1" stop-color="rgb(100%, 100%, 100%)" stop-opacity="0"/>
</linearGradient>
<linearGradient id="linear-pattern-17" gradientUnits="userSpaceOnUse" x1="741.357971" y1="701.192017" x2="283.613007" y2="325.365997">
<stop offset="0" stop-color="rgb(100%, 100%, 100%)" stop-opacity="1"/>
<stop offset="1" stop-color="rgb(100%, 100%, 100%)" stop-opacity="0"/>
</linearGradient>
<linearGradient id="linear-pattern-18" gradientUnits="userSpaceOnUse" x1="750.198975" y1="689.875" x2="274.773987" y2="336.68399">
<stop offset="0" stop-color="rgb(100%, 100%, 100%)" stop-opacity="1"/>
<stop offset="1" stop-color="rgb(100%, 100%, 100%)" stop-opacity="0"/>
</linearGradient>
<linearGradient id="linear-pattern-19" gradientUnits="userSpaceOnUse" x1="758.585999" y1="677.984985" x2="266.389008" y2="348.574005">
<stop offset="0" stop-color="rgb(100%, 100%, 100%)" stop-opacity="1"/>
<stop offset="1" stop-color="rgb(100%, 100%, 100%)" stop-opacity="0"/>
</linearGradient>
<linearGradient id="linear-pattern-20" gradientUnits="userSpaceOnUse" x1="767.122009" y1="664.45697" x2="257.859985" y2="362.102997">
<stop offset="0" stop-color="rgb(100%, 100%, 100%)" stop-opacity="1"/>
<stop offset="1" stop-color="rgb(100%, 100%, 100%)" stop-opacity="0"/>
</linearGradient>
<linearGradient id="linear-pattern-21" gradientUnits="userSpaceOnUse" x1="774.609985" y1="651.059998" x2="250.369995" y2="375.496002">
<stop offset="0" stop-color="rgb(100%, 100%, 100%)" stop-opacity="1"/>
<stop offset="1" stop-color="rgb(100%, 100%, 100%)" stop-opacity="0"/>
</linearGradient>
<linearGradient id="linear-pattern-22" gradientUnits="userSpaceOnUse" x1="780.768982" y1="638.651001" x2="244.218002" y2="387.903015">
<stop offset="0" stop-color="rgb(100%, 100%, 100%)" stop-opacity="1"/>
<stop offset="1" stop-color="rgb(100%, 100%, 100%)" stop-opacity="0"/>
</linearGradient>
<linearGradient id="linear-pattern-23" gradientUnits="userSpaceOnUse" x1="785.697998" y1="627.51001" x2="239.289001" y2="399.042999">
<stop offset="0" stop-color="rgb(100%, 100%, 100%)" stop-opacity="1"/>
<stop offset="1" stop-color="rgb(100%, 100%, 100%)" stop-opacity="0"/>
</linearGradient>
<linearGradient id="linear-pattern-24" gradientUnits="userSpaceOnUse" x1="790.796997" y1="614.458008" x2="234.195007" y2="412.09201">
<stop offset="0" stop-color="rgb(100%, 100%, 100%)" stop-opacity="1"/>
<stop offset="1" stop-color="rgb(100%, 100%, 100%)" stop-opacity="0"/>
</linearGradient>
<linearGradient id="linear-pattern-25" gradientUnits="userSpaceOnUse" x1="794.840027" y1="602.557007" x2="230.154999" y2="423.98999">
<stop offset="0" stop-color="rgb(100%, 100%, 100%)" stop-opacity="1"/>
<stop offset="1" stop-color="rgb(100%, 100%, 100%)" stop-opacity="0"/>
</linearGradient>
<linearGradient id="linear-pattern-26" gradientUnits="userSpaceOnUse" x1="798.328003" y1="590.666992" x2="226.669006" y2="435.877014">
<stop offset="0" stop-color="rgb(100%, 100%, 100%)" stop-opacity="1"/>
<stop offset="1" stop-color="rgb(100%, 100%, 100%)" stop-opacity="0"/>
</linearGradient>
<linearGradient id="linear-pattern-27" gradientUnits="userSpaceOnUse" x1="801.177979" y1="579.244019" x2="223.819" y2="447.29599">
<stop offset="0" stop-color="rgb(100%, 100%, 100%)" stop-opacity="1"/>
<stop offset="1" stop-color="rgb(100%, 100%, 100%)" stop-opacity="0"/>
</linearGradient>
<linearGradient id="linear-pattern-28" gradientUnits="userSpaceOnUse" x1="803.473999" y1="568.242981" x2="221.526001" y2="458.291992">
<stop offset="0" stop-color="rgb(100%, 100%, 100%)" stop-opacity="1"/>
<stop offset="1" stop-color="rgb(100%, 100%, 100%)" stop-opacity="0"/>
</linearGradient>
<linearGradient id="linear-pattern-29" gradientUnits="userSpaceOnUse" x1="804.919006" y1="559.945007" x2="220.080002" y2="466.588013">
<stop offset="0" stop-color="rgb(100%, 100%, 100%)" stop-opacity="1"/>
<stop offset="1" stop-color="rgb(100%, 100%, 100%)" stop-opacity="0"/>
</linearGradient>
<linearGradient id="linear-pattern-30" gradientUnits="userSpaceOnUse" x1="806.265991" y1="550.536011" x2="218.733002" y2="475.994995">
<stop offset="0" stop-color="rgb(100%, 100%, 100%)" stop-opacity="1"/>
<stop offset="1" stop-color="rgb(100%, 100%, 100%)" stop-opacity="0"/>
</linearGradient>
<linearGradient id="linear-pattern-31" gradientUnits="userSpaceOnUse" x1="807.382019" y1="540.325989" x2="217.619003" y2="486.200012">
<stop offset="0" stop-color="rgb(100%, 100%, 100%)" stop-opacity="1"/>
<stop offset="1" stop-color="rgb(100%, 100%, 100%)" stop-opacity="0"/>
</linearGradient>
<linearGradient id="linear-pattern-32" gradientUnits="userSpaceOnUse" x1="808.047974" y1="531.677979" x2="216.951996" y2="494.846008">
<stop offset="0" stop-color="rgb(100%, 100%, 100%)" stop-opacity="1"/>
<stop offset="1" stop-color="rgb(100%, 100%, 100%)" stop-opacity="0"/>
</linearGradient>
<linearGradient id="linear-pattern-33" gradientUnits="userSpaceOnUse" x1="808.469971" y1="522.666016" x2="216.526993" y2="503.854004">
<stop offset="0" stop-color="rgb(100%, 100%, 100%)" stop-opacity="1"/>
<stop offset="1" stop-color="rgb(100%, 100%, 100%)" stop-opacity="0"/>
</linearGradient>
<linearGradient id="linear-pattern-34" gradientUnits="userSpaceOnUse" x1="808.619019" y1="514.257019" x2="216.380997" y2="512.26001">
<stop offset="0" stop-color="rgb(100%, 100%, 100%)" stop-opacity="1"/>
<stop offset="1" stop-color="rgb(100%, 100%, 100%)" stop-opacity="0"/>
</linearGradient>
<linearGradient id="linear-pattern-35" gradientUnits="userSpaceOnUse" x1="808.515015" y1="505.313995" x2="216.485992" y2="521.200989">
<stop offset="0" stop-color="rgb(100%, 100%, 100%)" stop-opacity="1"/>
<stop offset="1" stop-color="rgb(100%, 100%, 100%)" stop-opacity="0"/>
</linearGradient>
<linearGradient id="linear-pattern-36" gradientUnits="userSpaceOnUse" x1="808.051025" y1="494.876007" x2="216.951004" y2="531.63501">
<stop offset="0" stop-color="rgb(100%, 100%, 100%)" stop-opacity="1"/>
<stop offset="1" stop-color="rgb(100%, 100%, 100%)" stop-opacity="0"/>
</linearGradient>
<linearGradient id="linear-pattern-37" gradientUnits="userSpaceOnUse" x1="807.156006" y1="483.817993" x2="217.848007" y2="542.690002">
<stop offset="0" stop-color="rgb(100%, 100%, 100%)" stop-opacity="1"/>
<stop offset="1" stop-color="rgb(100%, 100%, 100%)" stop-opacity="0"/>
</linearGradient>
<linearGradient id="linear-pattern-38" gradientUnits="userSpaceOnUse" x1="805.708008" y1="471.806" x2="219.294998" y2="554.697998">
<stop offset="0" stop-color="rgb(100%, 100%, 100%)" stop-opacity="1"/>
<stop offset="1" stop-color="rgb(100%, 100%, 100%)" stop-opacity="0"/>
</linearGradient>
<linearGradient id="linear-pattern-39" gradientUnits="userSpaceOnUse" x1="803.872986" y1="460.434998" x2="221.126007" y2="566.065002">
<stop offset="0" stop-color="rgb(100%, 100%, 100%)" stop-opacity="1"/>
<stop offset="1" stop-color="rgb(100%, 100%, 100%)" stop-opacity="0"/>
</linearGradient>
<linearGradient id="linear-pattern-40" gradientUnits="userSpaceOnUse" x1="801.125977" y1="447.053009" x2="223.867996" y2="579.442017">
<stop offset="0" stop-color="rgb(100%, 100%, 100%)" stop-opacity="1"/>
<stop offset="1" stop-color="rgb(100%, 100%, 100%)" stop-opacity="0"/>
</linearGradient>
<linearGradient id="linear-pattern-41" gradientUnits="userSpaceOnUse" x1="797.846008" y1="434.096008" x2="227.147995" y2="592.395996">
<stop offset="0" stop-color="rgb(100%, 100%, 100%)" stop-opacity="1"/>
<stop offset="1" stop-color="rgb(100%, 100%, 100%)" stop-opacity="0"/>
</linearGradient>
<linearGradient id="linear-pattern-42" gradientUnits="userSpaceOnUse" x1="794.547974" y1="423.04599" x2="230.445007" y2="603.44397">
<stop offset="0" stop-color="rgb(100%, 100%, 100%)" stop-opacity="1"/>
<stop offset="1" stop-color="rgb(100%, 100%, 100%)" stop-opacity="0"/>
</linearGradient>
<linearGradient id="linear-pattern-43" gradientUnits="userSpaceOnUse" x1="791.453003" y1="413.88501" x2="233.537994" y2="612.601013">
<stop offset="0" stop-color="rgb(100%, 100%, 100%)" stop-opacity="1"/>
<stop offset="1" stop-color="rgb(100%, 100%, 100%)" stop-opacity="0"/>
</linearGradient>
<linearGradient id="linear-pattern-44" gradientUnits="userSpaceOnUse" x1="787.783997" y1="404.131012" x2="237.205002" y2="622.354004">
<stop offset="0" stop-color="rgb(100%, 100%, 100%)" stop-opacity="1"/>
<stop offset="1" stop-color="rgb(100%, 100%, 100%)" stop-opacity="0"/>
</linearGradient>
<linearGradient id="linear-pattern-45" gradientUnits="userSpaceOnUse" x1="783.778992" y1="394.528992" x2="241.201996" y2="631.953003">
<stop offset="0" stop-color="rgb(100%, 100%, 100%)" stop-opacity="1"/>
<stop offset="1" stop-color="rgb(100%, 100%, 100%)" stop-opacity="0"/>
</linearGradient>
<linearGradient id="linear-pattern-46" gradientUnits="userSpaceOnUse" x1="779.125977" y1="384.414001" x2="245.856003" y2="642.065002">
<stop offset="0" stop-color="rgb(100%, 100%, 100%)" stop-opacity="1"/>
<stop offset="1" stop-color="rgb(100%, 100%, 100%)" stop-opacity="0"/>
</linearGradient>
</defs>
<path fill="none" stroke-width="1.34324" stroke-linecap="butt" stroke-linejoin="miter" stroke="url(#linear-pattern-0)" stroke-miterlimit="4" d="M 189.171875 513.328125 C 173.148438 425.566406 116.976562 375.796875 81.21875 344.113281 C 78.328125 341.550781 75.570312 339.105469 72.976562 336.769531 C 64.296875 328.945312 57.527344 322.382812 53.769531 316.644531 C 51.894531 313.78125 50.804688 311.179688 50.574219 308.765625 C 50.34375 306.378906 50.953125 304.132812 52.570312 301.953125 C 54.199219 299.753906 56.871094 297.601562 60.792969 295.472656 C 64.710938 293.34375 69.835938 291.253906 76.332031 289.160156 C 89.328125 284.976562 107.734375 280.792969 132.757812 276.226562 C 232.847656 257.949219 419.425781 237.027344 585.273438 244.316406 C 668.207031 247.960938 745.902344 258.65625 805.007812 280.234375 C 864.128906 301.824219 904.457031 334.226562 913.023438 381.167969 C 947.492188 569.96875 813.4375 752.664062 613.515625 789.164062 C 413.59375 825.667969 223.636719 702.132812 189.171875 513.328125 Z M 189.171875 513.328125 "/>
<path fill="none" stroke-width="1.34324" stroke-linecap="butt" stroke-linejoin="miter" stroke="url(#linear-pattern-1)" stroke-miterlimit="4" d="M 189.652344 526.019531 C 170.1875 438.957031 112.097656 391.4375 75.121094 361.1875 C 72.128906 358.742188 69.277344 356.40625 66.59375 354.175781 C 57.613281 346.699219 50.589844 340.40625 46.609375 334.824219 C 44.625 332.035156 43.433594 329.476562 43.105469 327.078125 C 42.78125 324.699219 43.300781 322.433594 44.832031 320.1875 C 46.375 317.925781 48.960938 315.671875 52.792969 313.390625 C 56.625 311.109375 61.664062 308.820312 68.074219 306.472656 C 80.894531 301.777344 99.121094 296.875 123.945312 291.324219 C 223.238281 269.117188 408.84375 240.863281 574.855469 241.609375 C 657.863281 241.984375 735.921875 249.613281 795.828125 268.847656 C 855.757812 288.085938 897.328125 318.875 907.738281 365.445312 C 949.617188 552.742188 822.863281 740.574219 624.53125 784.925781 C 426.203125 829.277344 231.527344 713.316406 189.652344 526.019531 Z M 189.652344 526.019531 "/>
<path fill="none" stroke-width="1.34324" stroke-linecap="butt" stroke-linejoin="miter" stroke="url(#linear-pattern-2)" stroke-miterlimit="4" d="M 190.898438 541.28125 C 167.320312 455.238281 107.039062 410.53125 68.667969 382.070312 C 65.566406 379.769531 62.605469 377.574219 59.820312 375.472656 C 50.492188 368.433594 43.179688 362.480469 38.9375 357.09375 C 36.820312 354.402344 35.511719 351.902344 35.070312 349.519531 C 34.632812 347.164062 35.042969 344.871094 36.464844 342.558594 C 37.902344 340.226562 40.375 337.851562 44.097656 335.386719 C 47.816406 332.929688 52.742188 330.402344 59.03125 327.753906 C 71.613281 322.457031 89.585938 316.691406 114.121094 309.96875 C 212.246094 283.074219 396.300781 246.035156 562.160156 238.898438 C 645.09375 235.332031 723.425781 239.242188 784.179688 255.609375 C 844.953125 271.984375 887.9375 300.761719 900.550781 346.785156 C 951.269531 531.882812 833.578125 725.523438 637.578125 779.242188 C 441.578125 832.960938 241.617188 726.378906 190.898438 541.28125 Z M 190.898438 541.28125 "/>
<path fill="none" stroke-width="1.34324" stroke-linecap="butt" stroke-linejoin="miter" stroke="url(#linear-pattern-3)" stroke-miterlimit="4" d="M 193.195312 557.261719 C 166.898438 472.015625 105.230469 429.242188 65.972656 402.015625 C 62.796875 399.816406 59.769531 397.714844 56.917969 395.703125 C 47.371094 388.964844 39.875 383.246094 35.464844 377.992188 C 33.261719 375.375 31.871094 372.914062 31.355469 370.550781 C 30.847656 368.207031 31.183594 365.902344 32.53125 363.546875 C 33.890625 361.167969 36.289062 358.71875 39.929688 356.136719 C 43.570312 353.558594 48.410156 350.878906 54.613281 348.03125 C 67.023438 342.335938 84.804688 336.003906 109.109375 328.503906 C 206.332031 298.507812 389.121094 255.640625 554.667969 243.238281 C 637.445312 237.039062 715.863281 238.460938 777.105469 252.890625 C 838.367188 267.324219 882.246094 294.722656 896.3125 340.320312 C 952.886719 523.714844 841.40625 720.996094 647.210938 780.914062 C 453.015625 840.832031 249.769531 740.65625 193.195312 557.261719 Z M 193.195312 557.261719 "/>
<path fill="none" stroke-width="1.34324" stroke-linecap="butt" stroke-linejoin="miter" stroke="url(#linear-pattern-4)" stroke-miterlimit="4" d="M 195.382812 570.945312 C 165.445312 486.90625 101.992188 446.828125 61.601562 421.3125 C 58.335938 419.25 55.222656 417.28125 52.285156 415.394531 C 42.460938 409.070312 34.722656 403.683594 30.089844 398.625 C 27.78125 396.101562 26.285156 393.703125 25.667969 391.363281 C 25.058594 389.042969 25.292969 386.730469 26.539062 384.316406 C 27.796875 381.882812 30.085938 379.328125 33.613281 376.597656 C 37.136719 373.863281 41.859375 370.980469 47.9375 367.867188 C 60.089844 361.644531 77.582031 354.554688 101.542969 346.015625 C 197.386719 311.867188 378.160156 261.183594 543.023438 241.675781 C 625.460938 231.925781 703.867188 229.972656 765.671875 241.757812 C 827.496094 253.546875 872.511719 279.03125 888.527344 323.984375 C 952.929688 504.773438 850.027344 706.667969 658.589844 774.878906 C 467.148438 843.085938 259.785156 751.738281 195.382812 570.945312 Z M 195.382812 570.945312 "/>
<path fill="none" stroke-width="1.34324" stroke-linecap="butt" stroke-linejoin="miter" stroke="url(#linear-pattern-5)" stroke-miterlimit="4" d="M 197.851562 583.183594 C 164.683594 500.363281 99.730469 462.769531 58.382812 438.839844 C 55.039062 436.90625 51.847656 435.058594 48.84375 433.285156 C 38.78125 427.347656 30.839844 422.261719 26.015625 417.386719 C 23.609375 414.957031 22.023438 412.621094 21.316406 410.304688 C 20.613281 408.011719 20.761719 405.6875 21.914062 403.226562 C 23.074219 400.746094 25.265625 398.109375 28.683594 395.238281 C 32.097656 392.375 36.707031 389.308594 42.65625 385.964844 C 54.558594 379.273438 71.765625 371.511719 95.378906 362.050781 C 189.828125 324.21875 368.503906 266.574219 532.488281 240.699219 C 614.484375 227.761719 692.757812 222.777344 754.972656 232.15625 C 817.207031 241.542969 863.175781 265.269531 880.917969 309.566406 C 952.273438 487.730469 857.265625 693.453125 668.605469 769.023438 C 479.949219 844.59375 269.207031 761.34375 197.851562 583.183594 Z M 197.851562 583.183594 "/>
<path fill="none" stroke-width="1.34324" stroke-linecap="butt" stroke-linejoin="miter" stroke="url(#linear-pattern-6)" stroke-miterlimit="4" d="M 200.894531 595.691406 C 164.445312 514.265625 98.039062 479.296875 55.769531 457.035156 C 52.351562 455.238281 49.089844 453.519531 46.015625 451.867188 C 35.722656 446.335938 27.585938 441.574219 22.570312 436.894531 C 20.070312 434.5625 18.390625 432.289062 17.59375 430.003906 C 16.800781 427.738281 16.855469 425.414062 17.910156 422.910156 C 18.96875 420.386719 21.054688 417.660156 24.355469 414.65625 C 27.652344 411.65625 32.132812 408.410156 37.945312 404.828125 C 49.570312 397.671875 66.453125 389.226562 89.667969 378.832031 C 182.53125 337.257812 358.765625 272.519531 521.585938 240.117188 C 603 223.914062 681.011719 215.808594 743.550781 222.695312 C 806.113281 229.589844 852.992188 251.460938 872.488281 295.015625 C 950.898438 470.183594 864.183594 679.539062 678.691406 762.585938 C 493.203125 845.628906 279.304688 770.863281 200.894531 595.691406 Z M 200.894531 595.691406 "/>
<path fill="none" stroke-width="1.34324" stroke-linecap="butt" stroke-linejoin="miter" stroke="url(#linear-pattern-7)" stroke-miterlimit="4" d="M 203.804688 605.996094 C 164.671875 525.828125 97.144531 493.082031 54.15625 472.238281 C 50.679688 470.554688 47.363281 468.945312 44.238281 467.398438 C 33.765625 462.210938 25.476562 457.71875 20.308594 453.210938 C 17.730469 450.960938 15.976562 448.746094 15.101562 446.488281 C 14.238281 444.253906 14.214844 441.925781 15.183594 439.390625 C 16.160156 436.828125 18.152344 434.035156 21.351562 430.925781 C 24.546875 427.820312 28.917969 424.425781 34.609375 420.652344 C 45.988281 413.113281 62.582031 404.113281 85.441406 392.953125 C 176.871094 348.3125 350.855469 277.757812 512.507812 239.964844 C 593.339844 221.066406 671.039062 210.371094 733.773438 215.183594 C 796.53125 219.992188 844.109375 240.292969 865.039062 283.175781 C 949.226562 455.644531 869.511719 667.765625 686.882812 756.925781 C 504.257812 846.085938 287.992188 778.46875 203.804688 605.996094 Z M 203.804688 605.996094 "/>
<path fill="none" stroke-width="1.34324" stroke-linecap="butt" stroke-linejoin="miter" stroke="url(#linear-pattern-8)" stroke-miterlimit="4" d="M 208.480469 620.332031 C 165.640625 542.078125 96.65625 512.527344 52.742188 493.71875 C 49.191406 492.195312 45.800781 490.746094 42.605469 489.34375 C 31.90625 484.652344 23.414062 480.554688 18.039062 476.292969 C 15.359375 474.164062 13.503906 472.035156 12.527344 469.820312 C 11.558594 467.628906 11.425781 465.304688 12.273438 462.726562 C 13.128906 460.121094 14.988281 457.242188 18.039062 453.984375 C 21.085938 450.730469 25.296875 447.132812 30.804688 443.101562 C 41.820312 435.035156 57.972656 425.269531 80.285156 413.054688 C 169.527344 364.1875 340.023438 285.574219 499.734375 240.265625 C 579.59375 217.605469 656.707031 203.289062 719.597656 205.160156 C 782.507812 207.03125 830.984375 225.085938 853.898438 266.941406 C 946.058594 435.285156 876.347656 650.902344 698.085938 748.503906 C 519.828125 846.109375 300.636719 788.675781 208.480469 620.332031 Z M 208.480469 620.332031 "/>
<path fill="none" stroke-width="1.34324" stroke-linecap="butt" stroke-linejoin="miter" stroke="url(#linear-pattern-9)" stroke-miterlimit="4" d="M 213.46875 633.5625 C 167.238281 557.265625 97.023438 530.769531 52.324219 513.902344 C 48.710938 512.539062 45.261719 511.238281 42.007812 509.976562 C 31.113281 505.761719 22.449219 502.039062 16.894531 498.015625 C 14.121094 496.007812 12.175781 493.964844 11.101562 491.792969 C 10.035156 489.644531 9.804688 487.328125 10.539062 484.714844 C 11.277344 482.078125 13.011719 479.117188 15.914062 475.730469 C 18.816406 472.34375 22.863281 468.566406 28.1875 464.296875 C 38.839844 455.757812 54.546875 445.292969 76.304688 432.109375 C 163.320312 379.375 330.203125 293.359375 487.773438 241.089844 C 566.5625 214.949219 642.972656 197.265625 705.886719 196.375 C 768.820312 195.484375 818.042969 211.394531 842.769531 252.207031 C 942.21875 416.34375 882.03125 634.8125 708.222656 740.140625 C 534.414062 845.46875 312.917969 797.703125 213.46875 633.5625 Z M 213.46875 633.5625 "/>
<path fill="none" stroke-width="1.34324" stroke-linecap="butt" stroke-linejoin="miter" stroke="url(#linear-pattern-10)" stroke-miterlimit="4" d="M 219.199219 646.933594 C 169.574219 572.796875 98.234375 549.496094 52.824219 534.664062 C 49.152344 533.464844 45.648438 532.320312 42.339844 531.210938 C 31.261719 527.488281 22.441406 524.160156 16.710938 520.394531 C 13.851562 518.511719 11.8125 516.558594 10.644531 514.4375 C 9.480469 512.339844 9.144531 510.035156 9.761719 507.390625 C 10.382812 504.722656 11.976562 501.6875 14.726562 498.171875 C 17.472656 494.660156 21.34375 490.703125 26.472656 486.199219 C 36.726562 477.1875 51.949219 466.023438 73.085938 451.871094 C 157.636719 395.265625 320.46875 301.808594 475.519531 242.480469 C 553.050781 212.8125 628.585938 191.699219 691.390625 187.96875 C 754.222656 184.238281 804.113281 197.914062 830.65625 237.566406 C 937.410156 397.050781 887.136719 618.011719 718.257812 731.074219 C 549.378906 844.140625 325.953125 806.417969 219.199219 646.933594 Z M 219.199219 646.933594 "/>
<path fill="none" stroke-width="1.34324" stroke-linecap="butt" stroke-linejoin="miter" stroke="url(#linear-pattern-11)" stroke-miterlimit="4" d="M 225.488281 659.957031 C 172.589844 588.121094 100.277344 568.042969 54.246094 555.261719 C 50.523438 554.230469 46.972656 553.242188 43.617188 552.28125 C 32.386719 549.0625 23.421875 546.132812 17.527344 542.625 C 14.589844 540.875 12.464844 539.011719 11.199219 536.949219 C 9.945312 534.902344 9.507812 532.621094 10.003906 529.949219 C 10.503906 527.257812 11.960938 524.152344 14.550781 520.515625 C 17.136719 516.886719 20.828125 512.761719 25.746094 508.027344 C 35.589844 498.566406 50.292969 486.730469 70.773438 471.644531 C 152.699219 411.304688 311.179688 310.636719 463.410156 244.410156 C 539.53125 211.296875 614.046875 186.816406 676.621094 180.273438 C 739.222656 173.730469 789.675781 185.152344 817.96875 223.574219 C 931.769531 378.109375 891.460938 601.101562 727.820312 721.628906 C 564.183594 842.152344 339.289062 814.492188 225.488281 659.957031 Z M 225.488281 659.957031 "/>
<path fill="none" stroke-width="1.34324" stroke-linecap="butt" stroke-linejoin="miter" stroke="url(#linear-pattern-12)" stroke-miterlimit="4" d="M 232.378906 672.722656 C 176.304688 603.339844 103.160156 586.535156 56.601562 575.839844 C 52.835938 574.972656 49.242188 574.148438 45.847656 573.339844 C 34.484375 570.628906 25.398438 568.105469 19.351562 564.867188 C 16.335938 563.253906 14.132812 561.484375 12.773438 559.480469 C 11.429688 557.496094 10.890625 555.234375 11.265625 552.542969 C 11.644531 549.828125 12.960938 546.660156 15.382812 542.914062 C 17.804688 539.171875 21.304688 534.882812 26.007812 529.933594 C 35.410156 520.039062 49.570312 507.554688 69.351562 491.5625 C 148.480469 427.597656 302.269531 319.898438 451.367188 246.890625 C 525.921875 210.386719 599.257812 182.578125 661.480469 173.226562 C 723.71875 163.871094 774.636719 173.011719 804.628906 210.121094 C 925.265625 359.382812 895.027344 583.964844 736.976562 711.730469 C 578.925781 839.496094 353.015625 821.980469 232.378906 672.722656 Z M 232.378906 672.722656 "/>
<path fill="none" stroke-width="1.34324" stroke-linecap="butt" stroke-linejoin="miter" stroke="url(#linear-pattern-13)" stroke-miterlimit="4" d="M 239.589844 684.773438 C 180.542969 617.898438 106.738281 604.296875 59.757812 595.640625 C 55.957031 594.9375 52.332031 594.269531 48.90625 593.609375 C 37.433594 591.394531 28.246094 589.273438 22.066406 586.300781 C 18.984375 584.816406 16.703125 583.148438 15.261719 581.203125 C 13.832031 579.28125 13.191406 577.042969 13.449219 574.339844 C 13.710938 571.613281 14.886719 568.390625 17.144531 564.539062 C 19.398438 560.695312 22.710938 556.261719 27.195312 551.109375 C 36.160156 540.8125 49.757812 527.726562 68.828125 510.886719 C 145.09375 443.535156 294.046875 329.238281 439.824219 249.808594 C 512.71875 210.089844 584.773438 179.113281 646.527344 167.058594 C 708.300781 155.003906 759.566406 161.917969 791.148438 197.6875 C 918.171875 341.546875 897.742188 567.234375 745.40625 701.761719 C 593.070312 836.292969 366.613281 828.632812 239.589844 684.773438 Z M 239.589844 684.773438 "/>
<path fill="none" stroke-width="1.34324" stroke-linecap="butt" stroke-linejoin="miter" stroke="url(#linear-pattern-14)" stroke-miterlimit="4" d="M 245.597656 693.980469 C 184.308594 629.160156 110.082031 618.085938 62.832031 611.035156 C 59.011719 610.464844 55.367188 609.921875 51.917969 609.375 C 40.375 607.554688 31.121094 605.746094 24.84375 602.984375 C 21.710938 601.609375 19.378906 600.019531 17.867188 598.125 C 16.375 596.25 15.660156 594.035156 15.824219 591.324219 C 15.992188 588.59375 17.058594 585.332031 19.183594 581.40625 C 21.304688 577.488281 24.464844 572.941406 28.769531 567.644531 C 37.378906 557.046875 50.523438 543.5 69.003906 526.023438 C 142.929688 456.109375 287.898438 336.800781 430.882812 252.441406 C 502.378906 210.257812 573.335938 176.839844 634.644531 162.691406 C 695.972656 148.53125 747.441406 153.695312 780.226562 188.363281 C 912.082031 327.8125 899.363281 554.0625 751.703125 693.707031 C 604.042969 833.355469 377.453125 833.425781 245.597656 693.980469 Z M 245.597656 693.980469 "/>
<path fill="none" stroke-width="1.34324" stroke-linecap="butt" stroke-linejoin="miter" stroke="url(#linear-pattern-15)" stroke-miterlimit="4" d="M 254.046875 705.871094 C 189.886719 643.890625 115.234375 636.183594 67.714844 631.277344 C 63.871094 630.882812 60.207031 630.503906 56.738281 630.113281 C 45.125 628.816406 35.800781 627.429688 29.402344 624.957031 C 26.210938 623.722656 23.808594 622.242188 22.214844 620.417969 C 20.636719 618.613281 19.820312 616.433594 19.863281 613.71875 C 19.90625 610.976562 20.828125 607.671875 22.773438 603.65625 C 24.714844 599.644531 27.664062 594.960938 31.722656 589.472656 C 39.84375 578.496094 52.363281 564.371094 70.035156 546.074219 C 140.722656 472.886719 280.148438 347.140625 419.167969 256.398438 C 488.683594 211.027344 558.058594 174.433594 618.660156 157.519531 C 679.285156 140.605469 730.9375 143.433594 765.253906 176.585938 C 903.285156 309.921875 900.8125 536.515625 759.617188 682.699219 C 618.429688 828.886719 392.074219 839.207031 254.046875 705.871094 Z M 254.046875 705.871094 "/>
<path fill="none" stroke-width="1.34324" stroke-linecap="butt" stroke-linejoin="miter" stroke="url(#linear-pattern-16)" stroke-miterlimit="4" d="M 261.636719 715.660156 C 195.140625 656.191406 120.25 651.359375 72.578125 648.285156 C 68.722656 648.035156 65.042969 647.796875 61.5625 647.542969 C 49.910156 646.695312 40.535156 645.664062 34.050781 643.441406 C 30.8125 642.332031 28.355469 640.941406 26.691406 639.179688 C 25.046875 637.4375 24.148438 635.289062 24.085938 632.574219 C 24.023438 629.835938 24.816406 626.5 26.605469 622.410156 C 28.394531 618.328125 31.160156 613.53125 35.003906 607.894531 C 42.699219 596.613281 54.664062 582.015625 71.621094 563.054688 C 139.445312 487.203125 273.933594 356.195312 409.367188 260.175781 C 477.089844 212.164062 545.003906 172.933594 604.910156 153.707031 C 664.84375 134.472656 716.566406 135.3125 752.132812 167.121094 C 895.179688 295.054688 901.417969 521.578125 765.945312 673.078125 C 630.476562 824.582031 404.6875 843.597656 261.636719 715.660156 Z M 261.636719 715.660156 "/>
<path fill="none" stroke-width="1.34324" stroke-linecap="butt" stroke-linejoin="miter" stroke="url(#linear-pattern-17)" stroke-miterlimit="4" d="M 270.390625 726.054688 C 201.449219 669.441406 126.417969 667.769531 78.660156 666.703125 C 74.796875 666.617188 71.113281 666.535156 67.625 666.429688 C 55.945312 666.070312 46.535156 665.4375 39.960938 663.488281 C 36.679688 662.515625 34.167969 661.234375 32.429688 659.542969 C 30.714844 657.871094 29.726562 655.765625 29.550781 653.054688 C 29.375 650.320312 30.023438 646.953125 31.636719 642.789062 C 33.25 638.636719 35.8125 633.730469 39.417969 627.933594 C 46.628906 616.339844 57.972656 601.25 74.113281 581.589844 C 138.679688 502.949219 267.527344 366.386719 398.796875 264.746094 C 464.433594 213.925781 530.636719 171.863281 589.679688 150.128906 C 648.746094 128.386719 700.460938 127.046875 737.335938 157.328125 C 885.648438 279.121094 901.421875 505.179688 772.457031 662.257812 C 643.492188 819.335938 418.703125 847.847656 270.390625 726.054688 Z M 270.390625 726.054688 "/>
<path fill="none" stroke-width="1.34324" stroke-linecap="butt" stroke-linejoin="miter" stroke="url(#linear-pattern-18)" stroke-miterlimit="4" d="M 280.988281 737.542969 C 209.382812 684.339844 134.363281 686.304688 86.605469 687.558594 C 82.746094 687.660156 79.058594 687.757812 75.570312 687.820312 C 63.890625 688.027344 54.460938 687.851562 47.800781 686.222656 C 44.476562 685.410156 41.902344 684.25 40.085938 682.648438 C 38.289062 681.058594 37.199219 679.003906 36.894531 676.304688 C 36.585938 673.582031 37.070312 670.1875 38.480469 665.953125 C 39.890625 661.726562 42.214844 656.699219 45.535156 650.734375 C 52.171875 638.804688 62.769531 623.183594 77.941406 602.765625 C 138.617188 521.085938 260.695312 378.4375 386.882812 270.554688 C 449.980469 216.609375 514.0625 171.386719 571.984375 146.816406 C 629.929688 122.234375 681.515625 118.386719 719.816406 146.847656 C 873.859375 261.304688 900.574219 486.332031 779.371094 649.476562 C 658.171875 812.621094 435.03125 852 280.988281 737.542969 Z M 280.988281 737.542969 "/>
<path fill="none" stroke-width="1.34324" stroke-linecap="butt" stroke-linejoin="miter" stroke="url(#linear-pattern-19)" stroke-miterlimit="4" d="M 292.285156 748.644531 C 218.152344 699.023438 143.316406 704.671875 95.679688 708.269531 C 91.828125 708.5625 88.152344 708.839844 84.671875 709.070312 C 73.011719 709.855469 63.589844 710.140625 56.855469 708.84375 C 53.496094 708.195312 50.867188 707.160156 48.976562 705.648438 C 47.101562 704.152344 45.914062 702.152344 45.476562 699.472656 C 45.03125 696.769531 45.351562 693.351562 46.554688 689.054688 C 47.753906 684.761719 49.824219 679.628906 52.847656 673.507812 C 58.894531 661.265625 68.710938 645.144531 82.863281 624.003906 C 139.453125 539.441406 254.378906 390.96875 375.113281 277.015625 C 435.484375 220.035156 497.269531 171.722656 553.914062 144.335938 C 610.582031 116.9375 661.914062 110.5625 701.570312 137.105469 C 861.046875 243.855469 898.78125 467.300781 785.742188 636.203125 C 672.699219 805.105469 451.761719 855.398438 292.285156 748.644531 Z M 292.285156 748.644531 "/>
<path fill="none" stroke-width="1.34324" stroke-linecap="butt" stroke-linejoin="miter" stroke="url(#linear-pattern-20)" stroke-miterlimit="4" d="M 305.316406 760.195312 C 228.613281 714.648438 154.191406 724.328125 106.820312 730.492188 C 102.988281 730.992188 99.332031 731.46875 95.867188 731.890625 C 84.269531 733.300781 74.875 734.097656 68.082031 733.160156 C 64.691406 732.695312 62.011719 731.808594 60.039062 730.398438 C 58.089844 729.003906 56.796875 727.070312 56.210938 724.421875 C 55.625 721.742188 55.757812 718.316406 56.726562 713.960938 C 57.691406 709.609375 59.484375 704.371094 62.171875 698.097656 C 67.550781 685.546875 76.480469 668.917969 89.46875 647.042969 C 141.414062 559.550781 248.15625 405.085938 362.558594 284.78125 C 419.765625 224.625 478.855469 173.046875 533.9375 142.636719 C 589.042969 112.21875 639.960938 103.082031 680.984375 127.445312 C 845.996094 225.429688 895.738281 446.507812 791.980469 621.269531 C 688.226562 796.03125 470.324219 858.179688 305.316406 760.195312 Z M 305.316406 760.195312 "/>
<path fill="none" stroke-width="1.34324" stroke-linecap="butt" stroke-linejoin="miter" stroke="url(#linear-pattern-21)" stroke-miterlimit="4" d="M 318.382812 770.597656 C 239.425781 729.085938 165.605469 742.609375 118.613281 751.222656 C 114.816406 751.917969 111.191406 752.582031 107.753906 753.183594 C 96.242188 755.191406 86.898438 756.472656 80.066406 755.894531 C 76.65625 755.605469 73.933594 754.855469 71.894531 753.550781 C 69.875 752.257812 68.480469 750.394531 67.761719 747.777344 C 67.035156 745.136719 66.992188 741.707031 67.730469 737.304688 C 68.472656 732.910156 69.992188 727.585938 72.351562 721.179688 C 77.070312 708.367188 85.128906 691.300781 96.964844 668.78125 C 144.308594 578.714844 242.902344 418.929688 350.921875 292.855469 C 404.9375 229.816406 461.273438 175.242188 514.707031 142.023438 C 568.160156 108.792969 618.535156 97.027344 660.769531 119.230469 C 830.632812 208.535156 891.761719 426.742188 797.199219 606.640625 C 702.636719 786.542969 488.246094 859.898438 318.382812 770.597656 Z M 318.382812 770.597656 "/>
<path fill="none" stroke-width="1.34324" stroke-linecap="butt" stroke-linejoin="miter" stroke="url(#linear-pattern-22)" stroke-miterlimit="4" d="M 330.632812 779.394531 C 249.816406 741.617188 176.710938 758.582031 130.175781 769.382812 C 126.410156 770.253906 122.820312 771.089844 119.414062 771.847656 C 108.011719 774.394531 98.738281 776.109375 91.886719 775.851562 C 88.46875 775.722656 85.714844 775.101562 83.613281 773.894531 C 81.535156 772.695312 80.058594 770.902344 79.214844 768.320312 C 78.367188 765.714844 78.164062 762.289062 78.695312 757.859375 C 79.230469 753.433594 80.5 748.046875 82.554688 741.535156 C 86.671875 728.519531 93.921875 711.089844 104.695312 688.042969 C 147.773438 595.863281 238.789062 431.640625 340.796875 300.652344 C 391.804688 235.15625 445.527344 178.007812 497.351562 142.324219 C 549.191406 106.632812 598.960938 92.523438 642.1875 112.726562 C 816.039062 193.988281 887.304688 409.097656 801.257812 593.226562 C 715.207031 777.351562 504.484375 860.65625 330.632812 779.394531 Z M 330.632812 779.394531 "/>
<path fill="none" stroke-width="1.34324" stroke-linecap="butt" stroke-linejoin="miter" stroke="url(#linear-pattern-23)" stroke-miterlimit="4" d="M 341.730469 786.648438 C 259.429688 752.230469 187.085938 772.1875 141.03125 784.894531 C 137.308594 785.921875 133.753906 786.898438 130.382812 787.800781 C 119.09375 790.8125 109.898438 792.910156 103.042969 792.929688 C 99.621094 792.941406 96.84375 792.4375 94.695312 791.316406 C 92.570312 790.207031 91.019531 788.472656 90.070312 785.925781 C 89.117188 783.359375 88.769531 779.945312 89.125 775.5 C 89.476562 771.054688 90.519531 765.617188 92.308594 759.03125 C 95.882812 745.851562 102.410156 728.144531 112.226562 704.671875 C 151.476562 610.796875 235.664062 442.96875 332.195312 307.898438 C 380.464844 240.355469 431.792969 181.050781 482.105469 143.265625 C 532.433594 105.464844 581.582031 89.324219 625.601562 107.734375 C 802.648438 181.773438 882.703125 393.769531 804.300781 581.28125 C 725.894531 768.792969 518.777344 860.691406 341.730469 786.648438 Z M 341.730469 786.648438 "/>
<path fill="none" stroke-width="1.34324" stroke-linecap="butt" stroke-linejoin="miter" stroke="url(#linear-pattern-24)" stroke-miterlimit="4" d="M 354.851562 794.421875 C 271.015625 763.9375 199.695312 787.292969 154.296875 802.160156 C 150.625 803.363281 147.121094 804.511719 143.796875 805.570312 C 132.660156 809.113281 123.578125 811.640625 116.730469 811.988281 C 113.3125 812.160156 110.511719 811.785156 108.316406 810.769531 C 106.140625 809.761719 104.507812 808.105469 103.441406 805.605469 C 102.367188 803.085938 101.859375 799.695312 102 795.234375 C 102.144531 790.777344 102.929688 785.300781 104.402344 778.632812 C 107.351562 765.300781 113.035156 747.300781 121.730469 723.394531 C 156.496094 627.765625 232.648438 456.144531 322.683594 316.65625 C 367.707031 246.910156 416.171875 185.238281 464.640625 145.117188 C 513.125 104.980469 561.453125 86.53125 606.296875 102.835938 C 786.648438 168.421875 876.636719 376.390625 807.191406 567.398438 C 737.746094 758.410156 535.203125 860.007812 354.851562 794.421875 Z M 354.851562 794.421875 "/>
<path fill="none" stroke-width="1.34324" stroke-linecap="butt" stroke-linejoin="miter" stroke="url(#linear-pattern-25)" stroke-miterlimit="4" d="M 366.925781 800.859375 C 281.871094 773.957031 211.605469 800.320312 166.875 817.101562 C 163.257812 818.460938 159.808594 819.753906 156.53125 820.953125 C 145.558594 824.964844 136.589844 827.878906 129.761719 828.515625 C 126.355469 828.832031 123.539062 828.578125 121.304688 827.652344 C 119.085938 826.738281 117.386719 825.152344 116.214844 822.703125 C 115.03125 820.230469 114.382812 816.863281 114.335938 812.398438 C 114.285156 807.941406 114.839844 802.433594 116.03125 795.714844 C 118.410156 782.269531 123.324219 764.042969 130.996094 739.785156 C 161.675781 642.769531 230.476562 468.070312 314.515625 324.890625 C 356.535156 253.292969 402.339844 189.621094 449.0625 147.480469 C 495.800781 105.320312 543.304688 84.835938 588.796875 99.226562 C 771.769531 157.097656 870.503906 361.0625 809.222656 554.847656 C 747.941406 748.632812 549.898438 858.730469 366.925781 800.859375 Z M 366.925781 800.859375 "/>
<path fill="none" stroke-width="1.34324" stroke-linecap="butt" stroke-linejoin="miter" stroke="url(#linear-pattern-26)" stroke-miterlimit="4" d="M 379.082031 806.699219 C 292.976562 783.378906 223.875 812.660156 179.890625 831.296875 C 176.332031 832.804688 172.9375 834.242188 169.714844 835.578125 C 158.917969 840.046875 150.078125 843.328125 143.28125 844.253906 C 139.890625 844.710938 137.070312 844.574219 134.796875 843.746094 C 132.542969 842.925781 130.777344 841.410156 129.503906 839.011719 C 128.222656 836.589844 127.429688 833.253906 127.195312 828.796875 C 126.960938 824.34375 127.285156 818.816406 128.191406 812.054688 C 130.007812 798.519531 134.15625 780.105469 140.804688 755.550781 C 167.398438 657.335938 228.835938 479.910156 306.808594 333.335938 C 345.796875 260.046875 388.898438 194.515625 433.816406 150.453125 C 478.753906 106.378906 525.355469 83.925781 571.410156 96.398438 C 756.644531 146.5625 863.824219 346.214844 810.703125 542.394531 C 757.582031 738.574219 564.316406 856.863281 379.082031 806.699219 Z M 379.082031 806.699219 "/>
<path fill="none" stroke-width="1.34324" stroke-linecap="butt" stroke-linejoin="miter" stroke="url(#linear-pattern-27)" stroke-miterlimit="4" d="M 390.847656 811.769531 C 303.886719 791.890625 236.003906 823.894531 192.789062 844.265625 C 189.296875 845.914062 185.960938 847.484375 182.792969 848.945312 C 172.183594 853.839844 163.480469 857.472656 156.726562 858.664062 C 153.359375 859.261719 150.535156 859.234375 148.226562 858.496094 C 145.945312 857.765625 144.121094 856.324219 142.753906 853.976562 C 141.375 851.609375 140.453125 848.304688 140.039062 843.863281 C 139.628906 839.421875 139.730469 833.890625 140.371094 827.09375 C 141.648438 813.496094 145.058594 794.933594 150.726562 770.132812 C 173.398438 670.9375 227.730469 491.210938 299.820312 341.65625 C 335.867188 266.871094 376.328125 199.679688 419.460938 153.867188 C 462.609375 108.039062 508.28125 83.75 554.796875 94.382812 C 741.878906 137.144531 856.90625 332.382812 811.625 530.519531 C 766.34375 728.65625 577.929688 854.53125 390.847656 811.769531 Z M 390.847656 811.769531 "/>
<path fill="none" stroke-width="1.34324" stroke-linecap="butt" stroke-linejoin="miter" stroke="url(#linear-pattern-28)" stroke-miterlimit="4" d="M 402.261719 816.167969 C 314.605469 799.605469 247.984375 834.160156 205.578125 856.15625 C 202.148438 857.9375 198.875 859.632812 195.765625 861.214844 C 185.347656 866.507812 176.789062 870.46875 170.085938 871.914062 C 166.742188 872.636719 163.921875 872.71875 161.585938 872.066406 C 159.277344 871.425781 157.398438 870.050781 155.945312 867.757812 C 154.476562 865.445312 153.429688 862.179688 152.851562 857.753906 C 152.269531 853.335938 152.164062 847.800781 152.542969 840.984375 C 153.304688 827.351562 156.011719 808.671875 160.734375 783.671875 C 179.625 683.6875 227.101562 502.03125 293.464844 349.847656 C 326.648438 273.75 364.53125 205.070312 405.894531 157.65625 C 447.273438 110.222656 491.992188 84.21875 538.878906 93.082031 C 727.445312 128.714844 849.796875 319.445312 812.0625 519.15625 C 774.332031 718.867188 590.828125 851.804688 402.261719 816.167969 Z M 402.261719 816.167969 "/>
<path fill="none" stroke-width="1.34324" stroke-linecap="butt" stroke-linejoin="miter" stroke="url(#linear-pattern-29)" stroke-miterlimit="4" d="M 410.917969 819.183594 C 322.828125 805.117188 257.21875 841.554688 215.453125 864.75 C 212.074219 866.625 208.851562 868.414062 205.785156 870.082031 C 195.523438 875.671875 187.085938 879.871094 180.425781 881.507812 C 177.101562 882.324219 174.28125 882.488281 171.933594 881.90625 C 169.605469 881.328125 167.6875 880.007812 166.171875 877.757812 C 164.636719 875.488281 163.496094 872.253906 162.792969 867.847656 C 162.085938 863.445312 161.820312 857.914062 162.007812 851.089844 C 162.378906 837.441406 164.554688 818.691406 168.566406 793.570312 C 184.605469 693.089844 226.898438 510.152344 288.902344 356.144531 C 319.910156 279.132812 355.824219 209.402344 395.824219 160.832031 C 435.835938 112.242188 479.800781 84.976562 526.917969 92.5 C 716.421875 122.757812 844.148438 309.929688 812.109375 510.632812 C 780.070312 711.339844 600.421875 849.4375 410.917969 819.183594 Z M 410.917969 819.183594 "/>
<path fill="none" stroke-width="1.34324" stroke-linecap="butt" stroke-linejoin="miter" stroke="url(#linear-pattern-30)" stroke-miterlimit="4" d="M 420.785156 822.285156 C 332.289062 811.054688 267.882812 849.578125 226.882812 874.101562 C 223.566406 876.085938 220.40625 877.976562 217.394531 879.742188 C 207.316406 885.65625 199.015625 890.128906 192.410156 891.976562 C 189.117188 892.902344 186.304688 893.152344 183.9375 892.644531 C 181.59375 892.144531 179.636719 890.886719 178.042969 888.6875 C 176.441406 886.464844 175.195312 883.269531 174.351562 878.886719 C 173.503906 874.511719 173.0625 868.992188 173.027344 862.164062 C 172.964844 848.511719 174.535156 829.703125 177.738281 804.464844 C 190.542969 703.519531 226.945312 519.320312 283.976562 363.402344 C 312.496094 285.4375 346.15625 214.589844 384.574219 164.757812 C 423.007812 114.910156 466.070312 86.25 513.40625 92.253906 C 703.785156 116.410156 837.453125 299.390625 811.871094 501.019531 C 786.289062 702.648438 611.164062 846.441406 420.785156 822.285156 Z M 420.785156 822.285156 "/>
<path fill="none" stroke-width="1.34324" stroke-linecap="butt" stroke-linejoin="miter" stroke="url(#linear-pattern-31)" stroke-miterlimit="4" d="M 431.558594 825.28125 C 342.726562 817.125 279.691406 857.859375 239.566406 883.789062 C 236.320312 885.886719 233.226562 887.886719 230.28125 889.757812 C 220.414062 896.015625 212.269531 900.773438 205.734375 902.851562 C 202.476562 903.886719 199.671875 904.234375 197.289062 903.8125 C 194.929688 903.390625 192.929688 902.203125 191.261719 900.058594 C 189.582031 897.894531 188.230469 894.742188 187.230469 890.394531 C 186.234375 886.046875 185.601562 880.550781 185.332031 873.726562 C 184.792969 860.085938 185.710938 841.230469 188.035156 815.898438 C 197.335938 714.570312 227.328125 529.21875 278.921875 371.414062 C 304.71875 292.507812 335.902344 220.535156 372.570312 169.402344 C 409.25 118.253906 451.296875 88.113281 498.8125 92.476562 C 689.910156 110.015625 829.84375 288.25 811.269531 490.644531 C 792.691406 693.039062 622.660156 842.820312 431.558594 825.28125 Z M 431.558594 825.28125 "/>
<path fill="none" stroke-width="1.34324" stroke-linecap="butt" stroke-linejoin="miter" stroke="url(#linear-pattern-32)" stroke-miterlimit="4" d="M 440.726562 827.515625 C 351.695312 821.96875 289.882812 864.53125 250.53125 891.625 C 247.351562 893.816406 244.316406 895.90625 241.425781 897.859375 C 231.746094 904.40625 223.746094 909.398438 217.273438 911.667969 C 214.046875 912.800781 211.257812 913.230469 208.859375 912.875 C 206.488281 912.523438 204.453125 911.394531 202.726562 909.300781 C 200.984375 907.1875 199.539062 904.078125 198.414062 899.757812 C 197.289062 895.445312 196.496094 889.964844 196.027344 883.15625 C 195.089844 869.535156 195.453125 850.660156 197.035156 825.269531 C 203.363281 723.714844 227.914062 537.566406 274.867188 378.316406 C 298.34375 298.6875 327.40625 225.835938 362.558594 173.648438 C 397.726562 121.445312 438.871094 90.089844 486.492188 93.058594 C 678.027344 104.992188 823.117188 279.054688 810.476562 481.90625 C 797.835938 684.757812 632.261719 839.453125 440.726562 827.515625 Z M 440.726562 827.515625 "/>
<path fill="none" stroke-width="1.34324" stroke-linecap="butt" stroke-linejoin="miter" stroke="url(#linear-pattern-33)" stroke-miterlimit="4" d="M 450.332031 829.558594 C 361.171875 826.722656 300.683594 871.148438 262.175781 899.429688 C 259.0625 901.714844 256.09375 903.898438 253.261719 905.9375 C 243.789062 912.777344 235.945312 918.011719 229.546875 920.476562 C 226.351562 921.703125 223.574219 922.222656 221.171875 921.941406 C 218.789062 921.660156 216.722656 920.59375 214.929688 918.554688 C 213.121094 916.492188 211.585938 913.429688 210.328125 909.144531 C 209.074219 904.867188 208.113281 899.417969 207.4375 892.625 C 206.085938 879.035156 205.875 860.164062 206.683594 834.734375 C 209.914062 733.03125 228.785156 546.222656 270.863281 385.617188 C 291.902344 305.3125 318.734375 231.605469 352.285156 178.375 C 385.84375 125.121094 426.015625 92.527344 473.707031 94.042969 C 665.515625 100.140625 815.835938 269.699219 809.382812 472.84375 C 802.925781 675.984375 642.140625 835.652344 450.332031 829.558594 Z M 450.332031 829.558594 "/>
<path fill="none" stroke-width="1.34324" stroke-linecap="butt" stroke-linejoin="miter" stroke="url(#linear-pattern-34)" stroke-miterlimit="4" d="M 459.339844 831.195312 C 370.132812 830.894531 310.929688 877.019531 273.246094 906.382812 C 270.195312 908.757812 267.289062 911.019531 264.519531 913.144531 C 255.242188 920.246094 247.550781 925.703125 241.222656 928.347656 C 238.066406 929.667969 235.304688 930.261719 232.894531 930.046875 C 230.503906 929.835938 228.40625 928.828125 226.558594 926.839844 C 224.695312 924.835938 223.070312 921.8125 221.691406 917.566406 C 220.316406 913.328125 219.203125 907.90625 218.332031 901.136719 C 216.59375 887.59375 215.851562 868.730469 215.9375 843.289062 C 216.277344 741.539062 229.839844 554.265625 267.339844 392.53125 C 286.089844 311.660156 310.816406 237.222656 342.84375 183.058594 C 374.878906 128.878906 414.105469 95.15625 461.820312 95.316406 C 653.722656 95.960938 808.800781 261.183594 808.113281 464.425781 C 807.429688 667.671875 651.242188 831.84375 459.339844 831.195312 Z M 459.339844 831.195312 "/>
<path fill="none" stroke-width="1.34324" stroke-linecap="butt" stroke-linejoin="miter" stroke="url(#linear-pattern-35)" stroke-miterlimit="4" d="M 468.964844 832.65625 C 379.789062 835.050781 322.007812 882.941406 285.226562 913.429688 C 282.25 915.894531 279.414062 918.246094 276.707031 920.449219 C 267.648438 927.832031 260.125 933.515625 253.882812 936.351562 C 250.765625 937.765625 248.023438 938.441406 245.605469 938.304688 C 243.214844 938.164062 241.085938 937.21875 239.179688 935.285156 C 237.253906 933.339844 235.539062 930.367188 234.035156 926.167969 C 232.53125 921.96875 231.253906 916.585938 230.179688 909.84375 C 228.035156 896.359375 226.71875 877.527344 226.039062 852.097656 C 223.308594 750.382812 231.207031 562.785156 263.804688 399.992188 C 280.105469 318.589844 302.574219 243.441406 332.949219 188.335938 C 363.335938 133.210938 401.527344 98.316406 449.222656 97.035156 C 641.058594 91.886719 801.054688 252.351562 806.507812 455.523438 C 811.960938 658.695312 660.800781 827.507812 468.964844 832.65625 Z M 468.964844 832.65625 "/>
<path fill="none" stroke-width="1.34324" stroke-linecap="butt" stroke-linejoin="miter" stroke="url(#linear-pattern-36)" stroke-miterlimit="4" d="M 480.257812 833.992188 C 391.222656 839.53125 335.164062 889.433594 299.480469 921.195312 C 296.597656 923.765625 293.84375 926.21875 291.21875 928.515625 C 282.425781 936.210938 275.105469 942.15625 268.96875 945.210938 C 265.902344 946.734375 263.1875 947.507812 260.765625 947.453125 C 258.367188 947.398438 256.210938 946.53125 254.234375 944.667969 C 252.242188 942.785156 250.425781 939.878906 248.773438 935.734375 C 247.121094 931.59375 245.65625 926.253906 244.34375 919.554688 C 241.726562 906.15625 239.746094 887.382812 238.167969 861.992188 C 231.851562 760.4375 233.128906 572.679688 259.964844 408.835938 C 273.386719 326.910156 293.1875 251.015625 321.601562 194.871094 C 350.023438 138.707031 386.960938 102.488281 434.582031 99.527344 C 626.117188 87.613281 791.671875 242.332031 804.289062 445.1875 C 816.902344 648.039062 671.792969 822.078125 480.257812 833.992188 Z M 480.257812 833.992188 "/>
<path fill="none" stroke-width="1.34324" stroke-linecap="butt" stroke-linejoin="miter" stroke="url(#linear-pattern-37)" stroke-miterlimit="4" d="M 492.292969 834.976562 C 403.53125 843.847656 349.382812 895.8125 314.910156 928.890625 C 312.121094 931.566406 309.464844 934.117188 306.925781 936.515625 C 298.429688 944.535156 291.339844 950.75 285.316406 954.03125 C 282.3125 955.667969 279.628906 956.542969 277.207031 956.578125 C 274.808594 956.617188 272.617188 955.828125 270.574219 954.039062 C 268.515625 952.234375 266.589844 949.398438 264.78125 945.316406 C 262.976562 941.238281 261.3125 935.960938 259.753906 929.316406 C 256.632812 916.023438 253.953125 897.339844 251.421875 872.023438 C 241.308594 770.777344 235.550781 583.101562 256.234375 418.371094 C 266.574219 336 283.523438 259.414062 309.8125 202.246094 C 336.109375 145.058594 371.664062 107.480469 419.144531 102.738281 C 610.097656 83.660156 781.332031 232.066406 801.535156 434.304688 C 821.738281 636.542969 683.246094 815.898438 492.292969 834.976562 Z M 492.292969 834.976562 "/>
<path fill="none" stroke-width="1.34324" stroke-linecap="butt" stroke-linejoin="miter" stroke="url(#linear-pattern-38)" stroke-miterlimit="4" d="M 505.449219 835.53125 C 417.121094 848.019531 365.140625 902.15625 332.050781 936.613281 C 329.375 939.402344 326.820312 942.0625 324.382812 944.558594 C 316.222656 952.917969 309.390625 959.417969 303.507812 962.945312 C 300.574219 964.703125 297.925781 965.6875 295.507812 965.820312 C 293.113281 965.953125 290.894531 965.257812 288.78125 963.554688 C 286.648438 961.835938 284.605469 959.078125 282.636719 955.074219 C 280.664062 951.074219 278.785156 945.871094 276.953125 939.292969 C 273.292969 926.140625 269.855469 907.578125 266.292969 882.390625 C 252.050781 781.636719 238.636719 594.355469 252.570312 428.917969 C 259.539062 346.191406 273.347656 268.980469 297.277344 210.785156 C 321.21875 152.570312 355.210938 113.574219 402.453125 106.894531 C 592.46875 80.03125 769.621094 221.316406 798.070312 422.5625 C 826.515625 623.808594 695.464844 808.667969 505.449219 835.53125 Z M 505.449219 835.53125 "/>
<path fill="none" stroke-width="1.34324" stroke-linecap="butt" stroke-linejoin="miter" stroke="url(#linear-pattern-39)" stroke-miterlimit="4" d="M 517.984375 835.5625 C 430.210938 851.476562 380.371094 907.59375 348.648438 943.3125 C 346.082031 946.203125 343.636719 948.957031 341.296875 951.546875 C 333.464844 960.21875 326.890625 966.980469 321.148438 970.730469 C 318.285156 972.601562 315.679688 973.691406 313.269531 973.917969 C 310.882812 974.144531 308.636719 973.535156 306.457031 971.914062 C 304.257812 970.28125 302.113281 967.605469 299.988281 963.679688 C 297.863281 959.761719 295.78125 954.632812 293.695312 948.132812 C 289.527344 935.128906 285.367188 916.71875 280.832031 891.6875 C 262.683594 791.5625 241.992188 604.945312 249.488281 439.089844 C 253.234375 356.15625 264.027344 278.464844 285.679688 219.382812 C 307.335938 160.28125 339.785156 119.992188 386.734375 111.480469 C 575.5625 77.246094 758.074219 211.539062 794.324219 411.527344 C 830.574219 611.511719 706.8125 801.328125 517.984375 835.5625 Z M 517.984375 835.5625 "/>
<path fill="none" stroke-width="1.34324" stroke-linecap="butt" stroke-linejoin="miter" stroke="url(#linear-pattern-40)" stroke-miterlimit="4" d="M 532.839844 834.96875 C 445.890625 854.910156 398.695312 913.265625 368.648438 950.410156 C 366.21875 953.414062 363.902344 956.28125 361.683594 958.976562 C 354.261719 968 348.007812 975.058594 342.445312 979.070312 C 339.671875 981.070312 337.117188 982.277344 334.71875 982.617188 C 332.347656 982.953125 330.074219 982.445312 327.824219 980.929688 C 325.550781 979.398438 323.285156 976.824219 320.980469 973.003906 C 318.679688 969.183594 316.363281 964.15625 313.980469 957.757812 C 309.214844 944.964844 304.210938 926.761719 298.527344 901.96875 C 275.78125 802.789062 246.507812 617.324219 246.347656 451.296875 C 246.265625 368.28125 253.464844 290.171875 272.367188 230.15625 C 291.277344 170.117188 321.835938 128.375 368.34375 117.707031 C 555.390625 74.800781 743.898438 200.535156 789.332031 398.636719 C 834.765625 596.738281 719.886719 792.0625 532.839844 834.96875 Z M 532.839844 834.96875 "/>
<path fill="none" stroke-width="1.34324" stroke-linecap="butt" stroke-linejoin="miter" stroke="url(#linear-pattern-41)" stroke-miterlimit="4" d="M 547.335938 833.722656 C 461.375 857.570312 416.859375 917.992188 388.523438 956.457031 C 386.230469 959.570312 384.042969 962.535156 381.949219 965.328125 C 374.941406 974.679688 369.011719 982.011719 363.636719 986.269531 C 360.953125 988.394531 358.460938 989.714844 356.078125 990.160156 C 353.722656 990.605469 351.429688 990.199219 349.113281 988.785156 C 346.773438 987.359375 344.394531 984.890625 341.917969 981.175781 C 339.449219 977.464844 336.90625 972.546875 334.238281 966.265625 C 328.902344 953.699219 323.082031 935.742188 316.28125 911.226562 C 289.085938 813.175781 251.476562 629.222656 243.824219 463.371094 C 239.996094 380.441406 243.664062 302.089844 259.839844 241.28125 C 276.023438 180.453125 304.664062 137.371094 350.644531 124.617188 C 535.5625 73.3125 729.554688 190.410156 783.878906 386.261719 C 838.203125 582.109375 732.257812 782.421875 547.335938 833.722656 Z M 547.335938 833.722656 "/>
<path fill="none" stroke-width="1.34324" stroke-linecap="butt" stroke-linejoin="miter" stroke="url(#linear-pattern-42)" stroke-miterlimit="4" d="M 559.785156 832.121094 C 474.820312 859.300781 432.6875 921.410156 405.871094 960.949219 C 403.699219 964.148438 401.632812 967.195312 399.648438 970.070312 C 393.011719 979.683594 387.371094 987.242188 382.164062 991.707031 C 379.566406 993.933594 377.125 995.351562 374.765625 995.890625 C 372.425781 996.425781 370.121094 996.109375 367.75 994.785156 C 365.359375 993.453125 362.882812 991.078125 360.265625 987.464844 C 357.652344 983.851562 354.921875 979.035156 352.011719 972.863281 C 346.1875 960.511719 339.675781 942.796875 331.925781 918.566406 C 300.929688 821.648438 256.1875 639.296875 242.085938 473.871094 C 235.03125 391.152344 235.648438 312.71875 249.445312 251.324219 C 263.246094 189.910156 290.191406 145.75 335.636719 131.214844 C 518.421875 72.75 716.824219 182.203125 778.730469 375.789062 C 840.640625 569.375 742.570312 773.660156 559.785156 832.121094 Z M 559.785156 832.121094 "/>
<path fill="none" stroke-width="1.34324" stroke-linecap="butt" stroke-linejoin="miter" stroke="url(#linear-pattern-43)" stroke-miterlimit="4" d="M 570.167969 830.410156 C 486.132812 860.34375 446.054688 923.800781 420.539062 964.191406 C 418.476562 967.457031 416.507812 970.574219 414.621094 973.511719 C 408.296875 983.335938 402.910156 991.074219 397.851562 995.707031 C 395.328125 998.015625 392.933594 999.511719 390.589844 1000.128906 C 388.273438 1000.738281 385.957031 1000.5 383.542969 999.257812 C 381.109375 998 378.558594 995.707031 375.824219 992.179688 C 373.09375 988.65625 370.210938 983.933594 367.097656 977.855469 C 360.875 965.703125 353.785156 948.210938 345.25 924.242188 C 311.109375 828.390625 260.4375 647.597656 240.941406 482.71875 C 231.195312 400.277344 229.246094 321.863281 241.03125 260.054688 C 252.824219 198.222656 278.3125 153.203125 323.257812 137.191406 C 504.035156 72.789062 705.90625 175.710938 774.101562 367.171875 C 842.296875 558.632812 750.945312 766.007812 570.167969 830.410156 Z M 570.167969 830.410156 "/>
<path fill="none" stroke-width="1.34324" stroke-linecap="butt" stroke-linejoin="miter" stroke="url(#linear-pattern-44)" stroke-miterlimit="4" d="M 581.289062 828.183594 C 498.363281 861.058594 460.539062 925.882812 436.464844 967.148438 C 434.515625 970.484375 432.65625 973.671875 430.875 976.667969 C 424.902344 986.710938 419.789062 994.636719 414.898438 999.441406 C 412.457031 1001.839844 410.113281 1003.421875 407.796875 1004.121094 C 405.5 1004.808594 403.179688 1004.648438 400.722656 1003.488281 C 398.246094 1002.320312 395.617188 1000.121094 392.761719 996.695312 C 389.90625 993.269531 386.859375 988.648438 383.535156 982.6875 C 376.886719 970.761719 369.1875 953.527344 359.816406 929.875 C 322.320312 835.28125 265.320312 656.386719 240.035156 492.296875 C 227.394531 410.246094 222.6875 331.949219 232.292969 269.761719 C 241.898438 207.554688 265.789062 161.667969 310.144531 144.085938 C 488.546875 73.363281 693.910156 169.113281 768.800781 358.058594 C 843.6875 547 759.691406 757.460938 581.289062 828.183594 Z M 581.289062 828.183594 "/>
<path fill="none" stroke-width="1.34324" stroke-linecap="butt" stroke-linejoin="miter" stroke="url(#linear-pattern-45)" stroke-miterlimit="4" d="M 592.304688 825.574219 C 510.582031 861.339844 475.058594 927.453125 452.445312 969.539062 C 450.617188 972.941406 448.871094 976.191406 447.195312 979.25 C 441.578125 989.496094 436.746094 997.59375 432.027344 1002.570312 C 429.671875 1005.050781 427.386719 1006.710938 425.09375 1007.488281 C 422.824219 1008.261719 420.5 1008.191406 418.003906 1007.121094 C 415.488281 1006.03125 412.78125 1003.929688 409.808594 1000.601562 C 406.835938 997.277344 403.625 992.769531 400.097656 986.925781 C 393.035156 975.238281 384.734375 958.285156 374.535156 934.980469 C 333.746094 841.765625 270.496094 664.976562 239.464844 501.878906 C 223.949219 420.324219 216.5 342.238281 223.914062 279.753906 C 231.328125 217.246094 253.59375 170.550781 297.304688 151.417969 C 473.109375 74.472656 681.714844 162.953125 763.1875 349.148438 C 844.664062 535.347656 768.109375 748.628906 592.304688 825.574219 Z M 592.304688 825.574219 "/>
<path fill="none" stroke-width="1.34324" stroke-linecap="butt" stroke-linejoin="miter" stroke="url(#linear-pattern-46)" stroke-miterlimit="4" d="M 603.988281 822.351562 C 523.667969 861.164062 490.65625 928.566406 469.640625 971.472656 C 467.941406 974.945312 466.320312 978.253906 464.757812 981.375 C 459.53125 991.824219 455.007812 1000.101562 450.476562 1005.25 C 448.21875 1007.820312 445.996094 1009.558594 443.734375 1010.429688 C 441.496094 1011.28125 439.167969 1011.300781 436.636719 1010.320312 C 434.082031 1009.328125 431.296875 1007.328125 428.199219 1004.121094 C 425.105469 1000.910156 421.726562 996.523438 417.980469 990.816406 C 410.484375 979.402344 401.554688 962.773438 390.484375 939.867188 C 346.222656 848.25 276.371094 673.96875 239.234375 512.148438 C 220.660156 431.234375 210.28125 353.488281 215.34375 290.769531 C 220.402344 228.027344 240.894531 180.523438 283.855469 159.761719 C 456.648438 76.265625 668.425781 156.839844 756.84375 339.839844 C 845.261719 522.84375 776.777344 738.851562 603.988281 822.351562 Z M 603.988281 822.351562 "/>
</svg>
